<?xml version="1.0" encoding="utf-8"?>
<!-- Generator: Adobe Illustrator 25.4.1, SVG Export Plug-In . SVG Version: 6.00 Build 0)  -->
<svg version="1.1" id="Camada_1" xmlns="http://www.w3.org/2000/svg" xmlns:xlink="http://www.w3.org/1999/xlink" x="0px" y="0px"
	 viewBox="0 0 109 35" style="enable-background:new 0 0 109 35;" xml:space="preserve">
<g>
	<path d="M0.4,32.7V2.3h7.4v23.7h9.1v6.6H0.4z"/>
	<path d="M17,17.5C17,8.6,23.4,1.7,33,1.7s15.9,6.9,15.9,15.7c0,8.9-6.3,15.8-15.9,15.8S17,26.4,17,17.5z M24.8,17.5
		c0,5.1,3.4,8.9,8.2,8.9s8.2-3.7,8.2-8.9c0-5-3.3-8.8-8.2-8.8C28.1,8.7,24.8,12.5,24.8,17.5z"/>
	<path d="M64,32.7H52.8V2.3h10.9c6.2,0,9.9,3,9.9,8.2c0,2.6-1.2,5.1-3.3,6.3c3,1.3,4.3,3.7,4.3,6.9C74.4,29.8,69.8,32.7,64,32.7z
		 M60.1,8.6v5.5h3.2c1.7,0,2.6-1.2,2.6-2.8c0-1.6-0.9-2.7-2.7-2.7H60.1z M60.1,20.1v6.2h3.6c2,0,3-1.4,3-3.1c0-1.8-1-3.1-3-3.1H60.1
		z"/>
	<path d="M76.7,17.5c0-8.8,6.3-15.7,15.9-15.7c9.6,0,15.9,6.9,15.9,15.7c0,8.9-6.3,15.8-15.9,15.8C83.1,33.3,76.7,26.4,76.7,17.5z
		 M84.5,17.5c0,5.1,3.4,8.9,8.2,8.9c4.8,0,8.2-3.7,8.2-8.9c0-5-3.3-8.8-8.2-8.8C87.8,8.7,84.5,12.5,84.5,17.5z"/>
</g>
</svg>
